<mxfile host="app.diagrams.net" agent="Mozilla/5.0 (Windows NT 10.0; Win64; x64; rv:136.0) Gecko/20100101 Firefox/136.0" version="26.2.9">
  <diagram name="Page-1" id="8-VR7iJMcNqdX3meWGVy">
    <mxGraphModel dx="746" dy="2042" grid="1" gridSize="10" guides="1" tooltips="1" connect="1" arrows="1" fold="1" page="1" pageScale="1" pageWidth="850" pageHeight="1100" math="0" shadow="0">
      <root>
        <mxCell id="0" />
        <mxCell id="1" parent="0" />
        <mxCell id="qRzVWy2TUR5vVs1TbLW0-5" value="" style="rounded=0;whiteSpace=wrap;html=1;" vertex="1" parent="1">
          <mxGeometry x="360" y="280" width="210" height="150" as="geometry" />
        </mxCell>
        <mxCell id="qRzVWy2TUR5vVs1TbLW0-2" value="" style="rounded=0;whiteSpace=wrap;html=1;" vertex="1" parent="1">
          <mxGeometry x="100" y="280" width="210" height="150" as="geometry" />
        </mxCell>
        <mxCell id="qRzVWy2TUR5vVs1TbLW0-3" value="Patient" style="text;html=1;align=center;verticalAlign=middle;whiteSpace=wrap;rounded=0;" vertex="1" parent="1">
          <mxGeometry x="175" y="290" width="60" height="30" as="geometry" />
        </mxCell>
        <mxCell id="qRzVWy2TUR5vVs1TbLW0-4" value="Doctor" style="text;html=1;align=center;verticalAlign=middle;whiteSpace=wrap;rounded=0;" vertex="1" parent="1">
          <mxGeometry x="435" y="290" width="60" height="30" as="geometry" />
        </mxCell>
        <mxCell id="qRzVWy2TUR5vVs1TbLW0-8" value="" style="rounded=0;whiteSpace=wrap;html=1;" vertex="1" parent="1">
          <mxGeometry x="850" y="280" width="210" height="150" as="geometry" />
        </mxCell>
        <mxCell id="qRzVWy2TUR5vVs1TbLW0-9" value="Ruangan" style="text;html=1;align=center;verticalAlign=middle;whiteSpace=wrap;rounded=0;" vertex="1" parent="1">
          <mxGeometry x="925" y="290" width="60" height="30" as="geometry" />
        </mxCell>
        <mxCell id="qRzVWy2TUR5vVs1TbLW0-10" value="&lt;div&gt;Linked list of ...&lt;/div&gt;&lt;div&gt;LEAVE TO FUNCTION PERSON&lt;/div&gt;" style="rounded=0;whiteSpace=wrap;html=1;" vertex="1" parent="1">
          <mxGeometry x="100" y="480" width="210" height="150" as="geometry" />
        </mxCell>
        <mxCell id="qRzVWy2TUR5vVs1TbLW0-11" value="&lt;div&gt;Kondisi tubuh: ?&lt;/div&gt;&lt;div&gt;inventory: queue&lt;/div&gt;&lt;div&gt;perut: stack&lt;/div&gt;&lt;div&gt;username: string&lt;/div&gt;&lt;div&gt;password: string&lt;/div&gt;&lt;div&gt;banarich&lt;/div&gt;&lt;div&gt;...&lt;/div&gt;&lt;div&gt;help make this&lt;/div&gt;" style="text;html=1;align=center;verticalAlign=middle;whiteSpace=wrap;rounded=0;" vertex="1" parent="1">
          <mxGeometry x="115" y="330" width="165" height="90" as="geometry" />
        </mxCell>
        <mxCell id="qRzVWy2TUR5vVs1TbLW0-13" value="usernames: list of string" style="rounded=0;whiteSpace=wrap;html=1;" vertex="1" parent="1">
          <mxGeometry x="360" y="480" width="210" height="150" as="geometry" />
        </mxCell>
        <mxCell id="qRzVWy2TUR5vVs1TbLW0-14" value="unique usernames" style="text;html=1;align=center;verticalAlign=middle;whiteSpace=wrap;rounded=0;" vertex="1" parent="1">
          <mxGeometry x="435" y="490" width="60" height="30" as="geometry" />
        </mxCell>
        <mxCell id="qRzVWy2TUR5vVs1TbLW0-15" value="" style="rounded=0;whiteSpace=wrap;html=1;" vertex="1" parent="1">
          <mxGeometry x="610" y="480" width="210" height="150" as="geometry" />
        </mxCell>
        <mxCell id="qRzVWy2TUR5vVs1TbLW0-16" value="Perut" style="text;html=1;align=center;verticalAlign=middle;whiteSpace=wrap;rounded=0;" vertex="1" parent="1">
          <mxGeometry x="685" y="490" width="60" height="30" as="geometry" />
        </mxCell>
        <mxCell id="qRzVWy2TUR5vVs1TbLW0-17" value="&lt;br&gt;&lt;div&gt;LEAVE TO FUNCTION PERSON&lt;/div&gt;&lt;div&gt;yang pasti banyak data kondisi tubuh dalam INT dan FLOAT&lt;/div&gt;" style="rounded=0;whiteSpace=wrap;html=1;" vertex="1" parent="1">
          <mxGeometry x="850" y="480" width="210" height="150" as="geometry" />
        </mxCell>
        <mxCell id="qRzVWy2TUR5vVs1TbLW0-18" value="Kondisi tubuh" style="text;html=1;align=center;verticalAlign=middle;whiteSpace=wrap;rounded=0;" vertex="1" parent="1">
          <mxGeometry x="925" y="490" width="60" height="30" as="geometry" />
        </mxCell>
        <mxCell id="qRzVWy2TUR5vVs1TbLW0-21" value="" style="rounded=0;whiteSpace=wrap;html=1;" vertex="1" parent="1">
          <mxGeometry x="100" y="670" width="210" height="150" as="geometry" />
        </mxCell>
        <mxCell id="qRzVWy2TUR5vVs1TbLW0-22" value="Obat" style="text;html=1;align=center;verticalAlign=middle;whiteSpace=wrap;rounded=0;" vertex="1" parent="1">
          <mxGeometry x="175" y="680" width="60" height="30" as="geometry" />
        </mxCell>
        <mxCell id="qRzVWy2TUR5vVs1TbLW0-23" value="" style="rounded=0;whiteSpace=wrap;html=1;" vertex="1" parent="1">
          <mxGeometry x="360" y="670" width="210" height="150" as="geometry" />
        </mxCell>
        <mxCell id="qRzVWy2TUR5vVs1TbLW0-24" value="Penyakit" style="text;html=1;align=center;verticalAlign=middle;whiteSpace=wrap;rounded=0;" vertex="1" parent="1">
          <mxGeometry x="435" y="680" width="60" height="30" as="geometry" />
        </mxCell>
        <mxCell id="qRzVWy2TUR5vVs1TbLW0-25" value="" style="rounded=0;whiteSpace=wrap;html=1;" vertex="1" parent="1">
          <mxGeometry x="610" y="670" width="210" height="150" as="geometry" />
        </mxCell>
        <mxCell id="qRzVWy2TUR5vVs1TbLW0-26" value="Obat untuk menyembuhkan penyakit" style="text;html=1;align=center;verticalAlign=middle;whiteSpace=wrap;rounded=0;" vertex="1" parent="1">
          <mxGeometry x="685" y="680" width="60" height="30" as="geometry" />
        </mxCell>
        <mxCell id="qRzVWy2TUR5vVs1TbLW0-27" value="" style="rounded=0;whiteSpace=wrap;html=1;" vertex="1" parent="1">
          <mxGeometry x="850" y="670" width="210" height="150" as="geometry" />
        </mxCell>
        <mxCell id="qRzVWy2TUR5vVs1TbLW0-28" value="Denah hospital" style="text;html=1;align=center;verticalAlign=middle;whiteSpace=wrap;rounded=0;" vertex="1" parent="1">
          <mxGeometry x="925" y="680" width="60" height="30" as="geometry" />
        </mxCell>
        <mxCell id="qRzVWy2TUR5vVs1TbLW0-29" value="" style="rounded=0;whiteSpace=wrap;html=1;" vertex="1" parent="1">
          <mxGeometry x="607.5" y="280" width="210" height="150" as="geometry" />
        </mxCell>
        <mxCell id="qRzVWy2TUR5vVs1TbLW0-30" value="Database user" style="text;html=1;align=center;verticalAlign=middle;whiteSpace=wrap;rounded=0;" vertex="1" parent="1">
          <mxGeometry x="682.5" y="290" width="60" height="30" as="geometry" />
        </mxCell>
        <mxCell id="qRzVWy2TUR5vVs1TbLW0-31" value="Antrian" style="text;html=1;align=center;verticalAlign=middle;whiteSpace=wrap;rounded=0;" vertex="1" parent="1">
          <mxGeometry x="185" y="500" width="60" height="30" as="geometry" />
        </mxCell>
        <mxCell id="qRzVWy2TUR5vVs1TbLW0-32" value="list of Ruangan" style="text;html=1;align=center;verticalAlign=middle;whiteSpace=wrap;rounded=0;" vertex="1" parent="1">
          <mxGeometry x="872.5" y="720" width="165" height="90" as="geometry" />
        </mxCell>
        <mxCell id="qRzVWy2TUR5vVs1TbLW0-33" value="Matrix" style="text;html=1;align=center;verticalAlign=middle;whiteSpace=wrap;rounded=0;" vertex="1" parent="1">
          <mxGeometry x="985" y="680" width="60" height="30" as="geometry" />
        </mxCell>
        <mxCell id="qRzVWy2TUR5vVs1TbLW0-34" value="&lt;div&gt;1.ID Penyakit, integer&lt;/div&gt;&lt;div&gt;2. Urut id obat: array of integer&lt;/div&gt;" style="text;html=1;align=center;verticalAlign=middle;whiteSpace=wrap;rounded=0;" vertex="1" parent="1">
          <mxGeometry x="630" y="720" width="165" height="90" as="geometry" />
        </mxCell>
        <mxCell id="qRzVWy2TUR5vVs1TbLW0-35" value="" style="rounded=0;whiteSpace=wrap;html=1;" vertex="1" parent="1">
          <mxGeometry x="100" y="860" width="210" height="150" as="geometry" />
        </mxCell>
        <mxCell id="qRzVWy2TUR5vVs1TbLW0-36" value="Daftar Obat untuk menyembuhkan penyakit" style="text;html=1;align=center;verticalAlign=middle;whiteSpace=wrap;rounded=0;" vertex="1" parent="1">
          <mxGeometry x="172.5" y="880" width="60" height="30" as="geometry" />
        </mxCell>
        <mxCell id="qRzVWy2TUR5vVs1TbLW0-37" value="Obat untuk menyembuhkan penyakit: map" style="text;html=1;align=center;verticalAlign=middle;whiteSpace=wrap;rounded=0;" vertex="1" parent="1">
          <mxGeometry x="120" y="910" width="165" height="90" as="geometry" />
        </mxCell>
        <mxCell id="qRzVWy2TUR5vVs1TbLW0-38" value="Map" style="text;html=1;align=center;verticalAlign=middle;whiteSpace=wrap;rounded=0;" vertex="1" parent="1">
          <mxGeometry x="760" y="680" width="60" height="30" as="geometry" />
        </mxCell>
        <mxCell id="qRzVWy2TUR5vVs1TbLW0-39" value="list" style="text;html=1;align=center;verticalAlign=middle;whiteSpace=wrap;rounded=0;" vertex="1" parent="1">
          <mxGeometry x="250" y="870" width="60" height="30" as="geometry" />
        </mxCell>
        <mxCell id="qRzVWy2TUR5vVs1TbLW0-40" value="&lt;div&gt;ID : int&lt;/div&gt;&lt;div&gt;Name : string&lt;/div&gt;&lt;div&gt;information about user (*void, use casting. if patient: cast Patient, if doctor: cast Doctor)&lt;/div&gt;&lt;div&gt;next: *(linked list node)&lt;/div&gt;" style="text;html=1;align=center;verticalAlign=middle;whiteSpace=wrap;rounded=0;" vertex="1" parent="1">
          <mxGeometry x="630" y="330" width="165" height="90" as="geometry" />
        </mxCell>
        <mxCell id="qRzVWy2TUR5vVs1TbLW0-41" value="&lt;div&gt;1. ID penyakit: integer&lt;/div&gt;&lt;div&gt;2. nama penyakit: string&lt;/div&gt;&lt;div&gt;3. maxmin kondisi tubuh&lt;/div&gt;" style="text;html=1;align=center;verticalAlign=middle;whiteSpace=wrap;rounded=0;" vertex="1" parent="1">
          <mxGeometry x="382.5" y="710" width="165" height="90" as="geometry" />
        </mxCell>
        <mxCell id="qRzVWy2TUR5vVs1TbLW0-43" value="struct? list?" style="text;html=1;align=center;verticalAlign=middle;whiteSpace=wrap;rounded=0;" vertex="1" parent="1">
          <mxGeometry x="985" y="490" width="60" height="30" as="geometry" />
        </mxCell>
        <mxCell id="qRzVWy2TUR5vVs1TbLW0-45" value="id obat-obat" style="text;html=1;align=center;verticalAlign=middle;whiteSpace=wrap;rounded=0;" vertex="1" parent="1">
          <mxGeometry x="632.5" y="530" width="165" height="90" as="geometry" />
        </mxCell>
        <mxCell id="qRzVWy2TUR5vVs1TbLW0-46" value="stack" style="text;html=1;align=center;verticalAlign=middle;whiteSpace=wrap;rounded=0;" vertex="1" parent="1">
          <mxGeometry x="745" y="490" width="60" height="30" as="geometry" />
        </mxCell>
        <mxCell id="qRzVWy2TUR5vVs1TbLW0-48" value="linked list" style="text;html=1;align=center;verticalAlign=middle;whiteSpace=wrap;rounded=0;" vertex="1" parent="1">
          <mxGeometry x="757.5" y="290" width="60" height="30" as="geometry" />
        </mxCell>
        <mxCell id="qRzVWy2TUR5vVs1TbLW0-51" value="queue" style="text;html=1;align=center;verticalAlign=middle;whiteSpace=wrap;rounded=0;" vertex="1" parent="1">
          <mxGeometry x="245" y="490" width="60" height="30" as="geometry" />
        </mxCell>
        <mxCell id="qRzVWy2TUR5vVs1TbLW0-52" value="set" style="text;html=1;align=center;verticalAlign=middle;whiteSpace=wrap;rounded=0;" vertex="1" parent="1">
          <mxGeometry x="510" y="500" width="60" height="30" as="geometry" />
        </mxCell>
        <mxCell id="qRzVWy2TUR5vVs1TbLW0-53" value="&lt;div&gt;kapasitas : integer&lt;/div&gt;&lt;div&gt;id pasien : integer&lt;/div&gt;&lt;div&gt;id doctor : integer&lt;/div&gt;&lt;div&gt;(maybe not id?)&lt;/div&gt;&lt;div&gt;...&lt;/div&gt;&lt;div&gt;LEAVE TO FUNCTION PERSON&lt;/div&gt;" style="text;html=1;align=center;verticalAlign=middle;whiteSpace=wrap;rounded=0;" vertex="1" parent="1">
          <mxGeometry x="872.5" y="320" width="165" height="90" as="geometry" />
        </mxCell>
        <mxCell id="qRzVWy2TUR5vVs1TbLW0-54" value="" style="rounded=0;whiteSpace=wrap;html=1;" vertex="1" parent="1">
          <mxGeometry x="1130" y="90" width="210" height="150" as="geometry" />
        </mxCell>
        <mxCell id="qRzVWy2TUR5vVs1TbLW0-55" value="Linked list" style="text;html=1;align=center;verticalAlign=middle;whiteSpace=wrap;rounded=0;" vertex="1" parent="1">
          <mxGeometry x="1205" y="100" width="60" height="30" as="geometry" />
        </mxCell>
        <mxCell id="qRzVWy2TUR5vVs1TbLW0-56" value="&lt;div&gt;id : int&lt;/div&gt;&lt;div&gt;name : string&lt;/div&gt;&lt;div&gt;^^^ only used in database, when using linked list for antrian, don&#39;t initalize it&lt;/div&gt;&lt;div&gt;information : *void&lt;/div&gt;&lt;div&gt;Next: * (linked list node)&lt;/div&gt;" style="text;html=1;align=center;verticalAlign=middle;whiteSpace=wrap;rounded=0;" vertex="1" parent="1">
          <mxGeometry x="1152.5" y="140" width="165" height="90" as="geometry" />
        </mxCell>
        <mxCell id="qRzVWy2TUR5vVs1TbLW0-57" value="&lt;div&gt;linked list&lt;/div&gt;&lt;div&gt;(single)&lt;/div&gt;" style="text;html=1;align=center;verticalAlign=middle;whiteSpace=wrap;rounded=0;" vertex="1" parent="1">
          <mxGeometry x="1280" y="100" width="60" height="30" as="geometry" />
        </mxCell>
        <mxCell id="qRzVWy2TUR5vVs1TbLW0-58" value="" style="rounded=0;whiteSpace=wrap;html=1;" vertex="1" parent="1">
          <mxGeometry x="1130" y="1060" width="210" height="150" as="geometry" />
        </mxCell>
        <mxCell id="qRzVWy2TUR5vVs1TbLW0-59" value="queue" style="text;html=1;align=center;verticalAlign=middle;whiteSpace=wrap;rounded=0;" vertex="1" parent="1">
          <mxGeometry x="1205" y="1070" width="60" height="30" as="geometry" />
        </mxCell>
        <mxCell id="qRzVWy2TUR5vVs1TbLW0-60" value="&lt;div&gt;First: * (linked list node)&lt;/div&gt;&lt;div&gt;Last: * (linked list node)&lt;/div&gt;&lt;div&gt;maxqueue: int&lt;/div&gt;" style="text;html=1;align=center;verticalAlign=middle;whiteSpace=wrap;rounded=0;" vertex="1" parent="1">
          <mxGeometry x="1152.5" y="1110" width="165" height="90" as="geometry" />
        </mxCell>
        <mxCell id="qRzVWy2TUR5vVs1TbLW0-61" value="queue + linked list" style="text;html=1;align=center;verticalAlign=middle;whiteSpace=wrap;rounded=0;" vertex="1" parent="1">
          <mxGeometry x="1280" y="1070" width="60" height="30" as="geometry" />
        </mxCell>
        <mxCell id="qRzVWy2TUR5vVs1TbLW0-62" value="&lt;div&gt;- database&lt;/div&gt;&lt;div&gt;- antrian queue&lt;/div&gt;" style="text;html=1;align=center;verticalAlign=middle;whiteSpace=wrap;rounded=0;" vertex="1" parent="1">
          <mxGeometry x="1145" y="100" width="60" height="30" as="geometry" />
        </mxCell>
        <mxCell id="qRzVWy2TUR5vVs1TbLW0-63" value="- antrian" style="text;html=1;align=center;verticalAlign=middle;whiteSpace=wrap;rounded=0;" vertex="1" parent="1">
          <mxGeometry x="1145" y="1070" width="60" height="30" as="geometry" />
        </mxCell>
        <mxCell id="qRzVWy2TUR5vVs1TbLW0-64" value="struct" style="text;html=1;align=center;verticalAlign=middle;whiteSpace=wrap;rounded=0;" vertex="1" parent="1">
          <mxGeometry x="510" y="680" width="60" height="30" as="geometry" />
        </mxCell>
        <mxCell id="qRzVWy2TUR5vVs1TbLW0-65" value="struct" style="text;html=1;align=center;verticalAlign=middle;whiteSpace=wrap;rounded=0;" vertex="1" parent="1">
          <mxGeometry x="1000" y="290" width="60" height="30" as="geometry" />
        </mxCell>
        <mxCell id="qRzVWy2TUR5vVs1TbLW0-66" value="struct" style="text;html=1;align=center;verticalAlign=middle;whiteSpace=wrap;rounded=0;" vertex="1" parent="1">
          <mxGeometry x="245" y="290" width="60" height="30" as="geometry" />
        </mxCell>
        <mxCell id="qRzVWy2TUR5vVs1TbLW0-67" value="" style="rounded=0;whiteSpace=wrap;html=1;" vertex="1" parent="1">
          <mxGeometry x="1130" y="670" width="210" height="150" as="geometry" />
        </mxCell>
        <mxCell id="qRzVWy2TUR5vVs1TbLW0-68" value="Matrix" style="text;html=1;align=center;verticalAlign=middle;whiteSpace=wrap;rounded=0;" vertex="1" parent="1">
          <mxGeometry x="1205" y="680" width="60" height="30" as="geometry" />
        </mxCell>
        <mxCell id="qRzVWy2TUR5vVs1TbLW0-69" value="&lt;div&gt;WILL NOT MAKE GENERIC ADT FOR THIS AS THERES ONLY ONE USE CASE (DENAH)&lt;/div&gt;&lt;div&gt;&lt;br&gt;&lt;/div&gt;&lt;div&gt;make matrix of Ruangan with:&lt;br&gt;Ruangan denah[row][col]&lt;/div&gt;" style="text;html=1;align=center;verticalAlign=middle;whiteSpace=wrap;rounded=0;" vertex="1" parent="1">
          <mxGeometry x="1152.5" y="720" width="165" height="90" as="geometry" />
        </mxCell>
        <mxCell id="qRzVWy2TUR5vVs1TbLW0-70" value="Matrix" style="text;html=1;align=center;verticalAlign=middle;whiteSpace=wrap;rounded=0;" vertex="1" parent="1">
          <mxGeometry x="1280" y="680" width="60" height="30" as="geometry" />
        </mxCell>
        <mxCell id="qRzVWy2TUR5vVs1TbLW0-71" value="- denah hospital" style="text;html=1;align=center;verticalAlign=middle;whiteSpace=wrap;rounded=0;" vertex="1" parent="1">
          <mxGeometry x="1145" y="680" width="60" height="30" as="geometry" />
        </mxCell>
        <mxCell id="qRzVWy2TUR5vVs1TbLW0-72" value="" style="rounded=0;whiteSpace=wrap;html=1;" vertex="1" parent="1">
          <mxGeometry x="1130" y="860" width="210" height="150" as="geometry" />
        </mxCell>
        <mxCell id="qRzVWy2TUR5vVs1TbLW0-73" value="Stack" style="text;html=1;align=center;verticalAlign=middle;whiteSpace=wrap;rounded=0;" vertex="1" parent="1">
          <mxGeometry x="1205" y="870" width="60" height="30" as="geometry" />
        </mxCell>
        <mxCell id="qRzVWy2TUR5vVs1TbLW0-74" value="&lt;div&gt;Data (obat id) : array of int&lt;/div&gt;&lt;div&gt;Top index of array : int&lt;/div&gt;&lt;div&gt;&lt;br&gt;&lt;/div&gt;" style="text;html=1;align=center;verticalAlign=middle;whiteSpace=wrap;rounded=0;" vertex="1" parent="1">
          <mxGeometry x="1152.5" y="910" width="165" height="90" as="geometry" />
        </mxCell>
        <mxCell id="qRzVWy2TUR5vVs1TbLW0-75" value="Stack" style="text;html=1;align=center;verticalAlign=middle;whiteSpace=wrap;rounded=0;" vertex="1" parent="1">
          <mxGeometry x="1280" y="870" width="60" height="30" as="geometry" />
        </mxCell>
        <mxCell id="qRzVWy2TUR5vVs1TbLW0-76" value="- perut" style="text;html=1;align=center;verticalAlign=middle;whiteSpace=wrap;rounded=0;" vertex="1" parent="1">
          <mxGeometry x="1145" y="870" width="60" height="30" as="geometry" />
        </mxCell>
        <mxCell id="qRzVWy2TUR5vVs1TbLW0-77" value="&lt;div&gt;id obat : int&lt;/div&gt;&lt;div&gt;nama obat: string&lt;/div&gt;" style="text;html=1;align=center;verticalAlign=middle;whiteSpace=wrap;rounded=0;" vertex="1" parent="1">
          <mxGeometry x="122.5" y="710" width="165" height="90" as="geometry" />
        </mxCell>
        <mxCell id="qRzVWy2TUR5vVs1TbLW0-78" value="struct" style="text;html=1;align=center;verticalAlign=middle;whiteSpace=wrap;rounded=0;" vertex="1" parent="1">
          <mxGeometry x="245" y="680" width="60" height="30" as="geometry" />
        </mxCell>
        <mxCell id="qRzVWy2TUR5vVs1TbLW0-79" value="struct" style="text;html=1;align=center;verticalAlign=middle;whiteSpace=wrap;rounded=0;" vertex="1" parent="1">
          <mxGeometry x="495" y="290" width="60" height="30" as="geometry" />
        </mxCell>
        <mxCell id="qRzVWy2TUR5vVs1TbLW0-80" value="&lt;div&gt;username: string&lt;/div&gt;&lt;div&gt;password: string&lt;/div&gt;&lt;div&gt;...&lt;/div&gt;&lt;div&gt;help make this&lt;/div&gt;" style="text;html=1;align=center;verticalAlign=middle;whiteSpace=wrap;rounded=0;" vertex="1" parent="1">
          <mxGeometry x="382.5" y="320" width="165" height="90" as="geometry" />
        </mxCell>
        <mxCell id="qRzVWy2TUR5vVs1TbLW0-81" value="" style="rounded=0;whiteSpace=wrap;html=1;" vertex="1" parent="1">
          <mxGeometry x="1130" y="280" width="210" height="150" as="geometry" />
        </mxCell>
        <mxCell id="qRzVWy2TUR5vVs1TbLW0-82" value="MAP" style="text;html=1;align=center;verticalAlign=middle;whiteSpace=wrap;rounded=0;" vertex="1" parent="1">
          <mxGeometry x="1205" y="290" width="60" height="30" as="geometry" />
        </mxCell>
        <mxCell id="qRzVWy2TUR5vVs1TbLW0-83" value="&lt;div&gt;id : int (key)&lt;/div&gt;&lt;div&gt;value : *void&lt;/div&gt;" style="text;html=1;align=center;verticalAlign=middle;whiteSpace=wrap;rounded=0;" vertex="1" parent="1">
          <mxGeometry x="1152.5" y="330" width="165" height="90" as="geometry" />
        </mxCell>
        <mxCell id="qRzVWy2TUR5vVs1TbLW0-84" value="map" style="text;html=1;align=center;verticalAlign=middle;whiteSpace=wrap;rounded=0;" vertex="1" parent="1">
          <mxGeometry x="1280" y="290" width="60" height="30" as="geometry" />
        </mxCell>
        <mxCell id="qRzVWy2TUR5vVs1TbLW0-85" value="&lt;div&gt;- obat-penyakit&lt;/div&gt;&lt;div&gt;-dokter-queue&lt;/div&gt;" style="text;html=1;align=center;verticalAlign=middle;whiteSpace=wrap;rounded=0;" vertex="1" parent="1">
          <mxGeometry x="1145" y="300" width="60" height="30" as="geometry" />
        </mxCell>
        <mxCell id="qRzVWy2TUR5vVs1TbLW0-86" value="" style="rounded=0;whiteSpace=wrap;html=1;" vertex="1" parent="1">
          <mxGeometry x="1130" y="475" width="210" height="150" as="geometry" />
        </mxCell>
        <mxCell id="qRzVWy2TUR5vVs1TbLW0-87" value="List" style="text;html=1;align=center;verticalAlign=middle;whiteSpace=wrap;rounded=0;" vertex="1" parent="1">
          <mxGeometry x="1205" y="485" width="60" height="30" as="geometry" />
        </mxCell>
        <mxCell id="qRzVWy2TUR5vVs1TbLW0-88" value="&lt;div&gt;array: array of *void&lt;/div&gt;&lt;div&gt;Neff : int&lt;/div&gt;&lt;div&gt;capacity : int&lt;/div&gt;" style="text;html=1;align=center;verticalAlign=middle;whiteSpace=wrap;rounded=0;" vertex="1" parent="1">
          <mxGeometry x="1152.5" y="525" width="165" height="90" as="geometry" />
        </mxCell>
        <mxCell id="qRzVWy2TUR5vVs1TbLW0-89" value="static list" style="text;html=1;align=center;verticalAlign=middle;whiteSpace=wrap;rounded=0;" vertex="1" parent="1">
          <mxGeometry x="1280" y="485" width="60" height="30" as="geometry" />
        </mxCell>
        <mxCell id="qRzVWy2TUR5vVs1TbLW0-90" value="&lt;div&gt;- daftar obat-penyakit&lt;/div&gt;&lt;div&gt;-kondisi tubuh&lt;/div&gt;" style="text;html=1;align=center;verticalAlign=middle;whiteSpace=wrap;rounded=0;" vertex="1" parent="1">
          <mxGeometry x="1145" y="495" width="60" height="30" as="geometry" />
        </mxCell>
        <mxCell id="qRzVWy2TUR5vVs1TbLW0-92" value="&lt;div&gt;JIKA FUNGSI ADA PERTIMBANGAN DATA STRUKTUR LAIN (ESPECIALLY YANG BERSIFAT STRUCT),&lt;/div&gt;&lt;div&gt;BILANG AJA DI GRUP YAK&lt;/div&gt;&lt;div&gt;CONTOH: MAP USERNAME -&amp;gt; PASSWORD&lt;/div&gt;&lt;div&gt;MAP LAINNYA&lt;/div&gt;" style="rounded=0;whiteSpace=wrap;html=1;" vertex="1" parent="1">
          <mxGeometry x="100" y="90" width="960" height="150" as="geometry" />
        </mxCell>
        <mxCell id="qRzVWy2TUR5vVs1TbLW0-93" value="DATA STRUCTURE KHUSUS PROGRAM" style="rounded=0;whiteSpace=wrap;html=1;fillColor=#d5e8d4;strokeColor=#82b366;fontSize=40;" vertex="1" parent="1">
          <mxGeometry x="100" y="-100" width="960" height="150" as="geometry" />
        </mxCell>
        <mxCell id="qRzVWy2TUR5vVs1TbLW0-95" value="ADT" style="rounded=0;whiteSpace=wrap;html=1;labelBackgroundColor=none;fillColor=#d5e8d4;strokeColor=#82b366;fontSize=31;" vertex="1" parent="1">
          <mxGeometry x="1130" y="-100" width="210" height="150" as="geometry" />
        </mxCell>
        <mxCell id="qRzVWy2TUR5vVs1TbLW0-101" value="" style="rounded=0;whiteSpace=wrap;html=1;fillColor=none;" vertex="1" parent="1">
          <mxGeometry x="80" y="-120" width="1000" height="1520" as="geometry" />
        </mxCell>
        <mxCell id="qRzVWy2TUR5vVs1TbLW0-105" value="" style="rounded=0;whiteSpace=wrap;html=1;fillColor=none;" vertex="1" parent="1">
          <mxGeometry x="1110" y="-120" width="250" height="1520" as="geometry" />
        </mxCell>
      </root>
    </mxGraphModel>
  </diagram>
</mxfile>
